# xmcd
#
# Track frame offsets:
#	150
#	18413
#	31269
#	48523
#	68428
#	84520
#	105833
#	123986
#	143365
#	162029
#	181071
#	196125
#	216074
#	235442
#	252959
#	284622
#
# Disc length: 3814 seconds
#
# Revision: 1
# Processed by: cddbd v1.5.1PL0 Copyright (c) Steve Scherf et al.
# Submitted via: audiograbber 1.83.01
#
DISCID=ca0ee410
DTITLE=Country - CB-60312
DYEAR=1900
DGENRE=
TTITLE0=Jackson, Alan and Jimmy Buffett - Its Five O'Clock Somewhere
TTITLE1=Montgomery, John M - Four Wheel Drive
TTITLE2=Loveless, Patty - Lovin All Night
TTITLE3=McGraw, Tim - Real Good Man
TTITLE4=Azar, Steve - One Good Reason Why
TTITLE5=Austin, Sherrie - Streets Of Heaven
TTITLE6=Jewell, Buddy - Help Pour Out The Rain
TTITLE7=McBride, Martina - This Ones For The Girls
TTITLE8=Allan, Gary - Tough Little Boys
TTITLE9=Green, Pat - Wave On Wave
TTITLE10=Messina, Jo Dee - Wishing Well
TTITLE11=Urban, Keith - Who Wouldnt Wanna Be Me
TTITLE12=Turner, Josh - Long Black Train
TTITLE13=Carpenter, Mary Chapen - Flesh And Blood
TTITLE14=Atkins, Rodney - Honesty (Write Me A List)
TTITLE15=Data - Data Track
EXTD=
EXTT0=
EXTT1=
EXTT2=
EXTT3=
EXTT4=
EXTT5=
EXTT6=
EXTT7=
EXTT8=
EXTT9=
EXTT10=
EXTT11=
EXTT12=
EXTT13=
EXTT14=
EXTT15=
PLAYORDER=
